<svg height="341.308" width="237.001" xmlns="http://www.w3.org/2000/svg">
  <g fill-rule="evenodd">
    <path d="m220.05 186.15h16.95v15.496h-16.95zm0-15.497h16.95v15.497h-16.95z" fill="#ea7a5f" />
    <path d="m220.05 155.157h16.95v15.496h-16.95z" fill="#d66652" />
    <path d="m220.05 139.66h16.95v15.497h-16.95z" fill="#9c503d" />
    <path
      d="m220.05 124.165h16.95v15.497h-16.95zm0-15.515h16.95v15.515h-16.95zm-16.906 108.492h16.908v15.516h-16.908zm0-15.496h16.908v15.496h-16.908z"
      fill="#271e1d" />
    <path d="m203.144 186.15h16.908v15.496h-16.908z" fill="#693830" />
    <path d="m203.144 170.653h16.908v15.497h-16.908z" fill="#5b2318" />
    <path d="m203.144 155.157h16.908v15.496h-16.908zm0-15.497h16.908v15.497h-16.908z" fill="#271e1d" />
    <path
      d="m203.144 124.165h16.908v15.497h-16.908zm0-15.515h16.908v15.515h-16.908zm0-15.497h16.908v15.496h-16.908v-15.497zm0-15.653h16.908v15.652h-16.908zm0-15.515h16.908v15.515h-16.908v-15.514z"
      fill="#271e1d" />
    <path d="m186.194 263.826h16.95v15.497h-16.95z" fill="#50241f" />
    <path d="m186.194 248.154h16.95v15.67h-16.95z" fill="#1e100f" />
    <path d="m186.194 232.658h16.95v15.496h-16.95z" fill="#50241f" />
    <path d="m186.194 217.142h16.95v15.516h-16.95z" fill="#81432c" />
    <path d="m186.194 201.646h16.95v15.496h-16.95z" fill="#dc825d" />
    <path d="m186.194 186.15h16.95v15.496h-16.95z" fill="#e4845c" />
    <path d="m186.194 170.653h16.95v15.497h-16.95z" fill="#e8895d" />
    <path d="m186.194 155.157h16.95v15.496h-16.95z" fill="#e98f63" />
    <path d="m186.194 139.66h16.95v15.497h-16.95z" fill="#d8704f" />
    <path d="m186.194 124.165h16.95v15.497h-16.95zm0-15.515h16.95v15.515h-16.95z" fill="#b35a42" />
    <path d="m186.194 93.153h16.95v15.496h-16.95v-15.497zm0-15.653h16.95v15.652h-16.95z"
      fill="#ce6f4f" />
    <path d="m186.194 61.985h16.95v15.515h-16.95v-15.514z" fill="#482520" />
    <path d="m186.194 46.49h16.95v15.495h-16.95z" fill="#29211b" />
    <path d="m169.286 279.322h16.908v15.496h-16.908z" fill="#1f0c0a" />
    <path d="m169.286 263.826h16.908v15.497h-16.908z" fill="#1f0c0a" />
    <path d="m169.286 248.154h16.908v15.67h-16.908z" fill="#4d1c16" />
    <path d="m169.286 232.658h16.908v15.496h-16.908z" fill="#a9543b" />
    <path d="m169.286 217.142h16.908v15.516h-16.908z" fill="#db7857" />
    <path d="m169.286 201.646h16.908v15.496h-16.908z" fill="#ed8d66" />
    <path d="m169.286 186.15h16.908v15.496h-16.908zm0-15.497h16.908v15.497h-16.908z" fill="#f0a370" />
    <path d="m169.286 155.157h16.908v15.496h-16.908z" fill="#b05135" />
    <path d="m169.286 139.66h16.908v15.497h-16.908z" fill="#ae533c" />
    <path d="m169.286 124.165h16.908v15.497h-16.908z" fill="#e27d50" />
    <path d="m169.286 108.65h16.908v15.515h-16.908z" fill="#f28d5d" />
    <path d="m169.286 93.153h16.908v15.496h-16.908v-15.497zm0-15.653h16.908v15.652h-16.908z"
      fill="#e98a5c" />
    <path d="m169.286 61.985h16.908v15.515h-16.908v-15.514z" fill="#d2694c" />
    <path d="m169.286 46.49h16.908v15.495h-16.908z" fill="#42241d" />
    <path d="m169.286 30.992h16.908v15.498h-16.908v-15.5z" fill="#1f1313" />
    <path d="m169.286 15.496h16.908v15.496h-16.908z" fill="#595146" />
    <path d="m152.336 294.818h16.95v15.496h-16.95z" fill="#190b0a" />
    <path d="m152.336 279.322h16.95v15.496h-16.95z" fill="#150b09" />
    <path d="m152.336 263.826h16.95v15.497h-16.95z" fill="#2d0c0a" />
    <path d="m152.336 248.154h16.95v15.67h-16.95z" fill="#4e1a12" />
    <path d="m152.336 232.658h16.95v15.496h-16.95z" fill="#803927" />
    <path d="m152.336 217.142h16.95v15.516h-16.95zm0-15.496h16.95v15.496h-16.95z" fill="#f19666" />
    <path d="m152.336 186.15h16.95v15.496h-16.95z" fill="#eea377" />
    <path d="m152.336 170.653h16.95v15.497h-16.95z" fill="#db7955" />
    <path d="m152.336 155.157h16.95v15.496h-16.95z" fill="#925546" />
    <path d="m152.336 139.66h16.95v15.497h-16.95z" fill="#b56147" />
    <path d="m152.336 124.165h16.95v15.497h-16.95z" fill="#eb9b6f" />
    <path d="m152.336 108.65h16.95v15.515h-16.95z" fill="#ed865a" />
    <path d="m152.336 93.153h16.95v15.496h-16.95v-15.497z" fill="#f79f6d" />
    <path d="m152.336 77.5h16.95v15.652h-16.95z" fill="#ef9f67" />
    <path d="m152.336 61.985h16.95v15.515h-16.95v-15.514z" fill="#dd7753" />
    <path d="m152.336 46.49h16.95v15.495h-16.95z" fill="#562f21" />
    <path d="m152.336 30.992h16.95v15.498h-16.95v-15.5z" fill="#1f1313" />
    <path d="m152.336 15.496h16.95v15.496h-16.95z" fill="#1f1313" />
    <path d="m152.336 0h16.95v15.496h-16.95z" fill="#4c3c39" />
    <path d="m135.45 310.314h16.886v15.496h-16.886z" fill="#210001" />
    <path d="m135.45 294.818h16.886v15.496h-16.886z" fill="#190b0a" />
    <path d="m135.45 279.322h16.886v15.496h-16.886z" fill="#250f0f" />
    <path d="m135.45 263.826h16.886v15.497h-16.886z" fill="#8a3e29" />
    <path d="m135.45 248.154h16.886v15.67h-16.886z" fill="#ca643e" />
    <path d="m135.45 232.658h16.886v15.496h-16.886z" fill="#370a0b" />
    <path d="m135.45 217.142h16.886v15.516h-16.886z" fill="#d16949" />
    <path d="m135.45 201.646h16.886v15.496h-16.886z" fill="#f19666" />
    <path d="m135.45 186.15h16.886v15.496h-16.886z" fill="#f8aa7c" />
    <path d="m135.45 170.653h16.886v15.497h-16.886z" fill="#d77554" />
    <path d="m135.45 155.157h16.886v15.496h-16.886z" fill="#783e31" />
    <path d="m135.45 139.66h16.886v15.497h-16.886z" fill="#531e1b" />
    <path d="m135.45 124.165h16.886v15.497h-16.886z" fill="#f1b486" />
    <path d="m135.45 108.65h16.886v15.515h-16.886z" fill="#f0a673" />
    <path d="m135.45 93.153h16.886v15.496h-16.886v-15.497z" fill="#f79f6d" />
    <path d="m135.45 77.5h16.886v15.652h-16.886z" fill="#efa673" />
    <path d="m135.45 61.985h16.886v15.515h-16.886v-15.514z" fill="#cf7452" />
    <path d="m135.45 46.49h16.886v15.495h-16.886z" fill="#39221a" />
    <path d="m135.45 30.992h16.886v15.498h-16.886v-15.5z" fill="#1f1313" />
    <path d="m135.45 15.496h16.886v15.496h-16.886z" fill="#1f1313" />
    <path d="m135.45 0h16.886v15.496h-16.886z" fill="#3c2b2a" />
    <path d="m118.5 325.81h16.95v15.498h-16.95z" fill="#58180f" />
    <path d="m118.5 310.314h16.95v15.496h-16.95z" fill="#210001" />
    <path d="m118.5 294.818h16.95v15.496h-16.95z" fill="#110503" />
    <path d="m118.5 279.322h16.95v15.496h-16.95z" fill="#36120d" />
    <path d="m118.5 263.826h16.95v15.497h-16.95z" fill="#9b4a36" />
    <path d="m118.5 248.154h16.95v15.67h-16.95z" fill="#d45f47" />
    <path d="m118.5 232.658h16.95v15.496h-16.95z" fill="#8a3422" />
    <path d="m118.5 217.142h16.95v15.516h-16.95z" fill="#a94f39" />
    <path d="m118.5 201.646h16.95v15.496h-16.95z" fill="#f27d5b" />
    <path d="m118.5 186.15h16.95v15.496h-16.95z" fill="#ea7b55" />
    <path d="m118.5 170.653h16.95v15.497h-16.95z" fill="#f29664" />
    <path d="m118.5 155.157h16.95v15.496h-16.95z" fill="#d06b52" />
    <path d="m118.5 139.66h16.95v15.497h-16.95z" fill="#994934" />
    <path d="m118.5 124.165h16.95v15.497h-16.95z" fill="#f1b384" />
    <path d="m118.5 108.65h16.95v15.515h-16.95z" fill="#f2b480" />
    <path d="m118.5 93.153h16.95v15.496h-16.95v-15.497zm0-15.653h16.95v15.652h-16.95z"
      fill="#f2aa7d" />
    <path d="m118.5 61.985h16.95v15.515h-16.95v-15.514z" fill="#7d4231" />
    <path d="m118.5 46.49h16.95v15.495h-16.95zm0-15.498h16.95v15.498h-16.95v-15.5z" fill="#1f1313" />
    <path d="m118.5 15.496h16.95v15.496h-16.95zm0-15.496h16.95v15.496h-16.95z" fill="#1f1313" />
    <path d="m101.55 325.81h16.95v15.498h-16.95z" fill="#2c0705" />
    <path d="m101.55 310.314h16.95v15.496h-16.95z" fill="#210001" />
    <path d="m101.55 294.818h16.95v15.496h-16.95z" fill="#110503" />
    <path d="m101.55 279.322h16.95v15.496h-16.95z" fill="#36120d" />
    <path d="m101.55 263.826h16.95v15.497h-16.95z" fill="#220906" />
    <path d="m101.55 248.154h16.95v15.67h-16.95z" fill="#e97057" />
    <path d="m101.55 232.658h16.95v15.496h-16.95z" fill="#b85142" />
    <path d="m101.55 217.142h16.95v15.516h-16.95z" fill="#541e16" />
    <path d="m101.55 201.646h16.95v15.496h-16.95z" fill="#e4765c" />
    <path d="m101.55 186.15h16.95v15.496h-16.95z" fill="#f48d68" />
    <path d="m101.55 170.653h16.95v15.497h-16.95z" fill="#f08a66" />
    <path d="m101.55 155.157h16.95v15.496h-16.95zm0-15.497h16.95v15.497h-16.95z" fill="#ee9d77" />
    <path d="m101.55 124.165h16.95v15.497h-16.95z" fill="#f1b384" />
    <path d="m101.55 108.65h16.95v15.515h-16.95z" fill="#f6b77b" />
    <path d="m101.55 93.153h16.95v15.496h-16.95v-15.497zm0-15.653h16.95v15.652h-16.95z"
      fill="#e9986f" />
    <path d="m101.55 61.985h16.95v15.515h-16.95v-15.514z" fill="#7d4231" />
    <path d="m101.55 46.49h16.95v15.495h-16.95zm0-15.498h16.95v15.498h-16.95v-15.5z" fill="#1f1313" />
    <path d="m101.55 15.496h16.95v15.496h-16.95zm0-15.496h16.95v15.496h-16.95z" fill="#1f1313" />
    <path d="m84.643 325.81h16.908v15.498h-16.907v-15.498z" fill="#58180f" />
    <path d="m84.643 310.314h16.908v15.496h-16.907v-15.496z" fill="#210001" />
    <path d="m84.643 294.818h16.908v15.496h-16.907v-15.496z" fill="#110503" />
    <path d="m84.643 279.322h16.908v15.496h-16.907v-15.496z" fill="#290909" />
    <path d="m84.643 263.826h16.908v15.497h-16.907v-15.497z" fill="#290800" />
    <path d="m84.643 248.154h16.908v15.67h-16.907v-15.67z" fill="#dd624e" />
    <path d="m84.643 232.658h16.908v15.496h-16.907v-15.496z" fill="#632119" />
    <path d="m84.643 217.142h16.908v15.516h-16.907v-15.516z" fill="#541e16" />
    <path d="m84.643 201.646h16.908v15.496h-16.907v-15.496z" fill="#c65944" />
    <path d="m84.643 186.15h16.908v15.496h-16.907v-15.496z" fill="#e46d55" />
    <path d="m84.643 170.653h16.908v15.497h-16.907v-15.497z" fill="#d45b48" />
    <path d="m84.643 155.157h16.908v15.496h-16.907v-15.496z" fill="#a84c32" />
    <path d="m84.643 139.66h16.908v15.497h-16.907v-15.497z" fill="#d07257" />
    <path d="m84.643 124.165h16.908v15.497h-16.907v-15.497z" fill="#f5b588" />
    <path d="m84.643 108.65h16.908v15.515h-16.907v-15.515z" fill="#f6b17f" />
    <path d="m84.643 93.153h16.908v15.496h-16.907v-15.497zm0-15.653h16.908v15.652h-16.907v-15.652z"
      fill="#e9986f" />
    <path d="m84.643 61.985h16.908v15.515h-16.907v-15.514z" fill="#5e261c" />
    <path d="m84.643 46.49h16.908v15.495h-16.907v-15.495zm0-15.498h16.908v15.498h-16.907v-15.5z"
      fill="#1f1313" />
    <path d="m84.643 15.496h16.908v15.496h-16.907v-15.496z" fill="#1f1313" />
    <path d="m84.643 0h16.908v15.496h-16.907v-15.496z" fill="#3c2b2a" />
    <path d="m67.693 310.314h16.95v15.496h-16.95z" fill="#210001" />
    <path d="m67.693 294.818h16.95v15.496h-16.95z" fill="#120000" />
    <path d="m67.693 279.322h16.95v15.496h-16.95z" fill="#0f0301" />
    <path d="m67.693 263.826h16.95v15.497h-16.95z" fill="#3d0f06" />
    <path d="m67.693 248.154h16.95v15.67h-16.95z" fill="#7d2f20" />
    <path d="m67.693 232.658h16.95v15.496h-16.95z" fill="#37100d" />
    <path d="m67.693 217.142h16.95v15.516h-16.95z" fill="#9c4735" />
    <path d="m67.693 201.646h16.95v15.496h-16.95z" fill="#c95b3d" />
    <path d="m67.693 186.15h16.95v15.496h-16.95z" fill="#e67656" />
    <path d="m67.693 170.653h16.95v15.497h-16.95z" fill="#de7d5e" />
    <path d="m67.693 155.157h16.95v15.496h-16.95z" fill="#9e4b39" />
    <path d="m67.693 139.66h16.95v15.497h-16.95z" fill="#58231b" />
    <path d="m67.693 124.165h16.95v15.497h-16.95z" fill="#f5b588" />
    <path d="m67.693 108.65h16.95v15.515h-16.95z" fill="#f0a477" />
    <path d="m67.693 93.153h16.95v15.496h-16.95v-15.497z" fill="#df9262" />
    <path d="m67.693 77.5h16.95v15.652h-16.95z" fill="#e9986f" />
    <path d="m67.693 61.985h16.95v15.515h-16.95v-15.514z" fill="#5e261c" />
    <path d="m67.693 46.49h16.95v15.495h-16.95zm0-15.498h16.95v15.498h-16.95v-15.5z" fill="#1f1313" />
    <path d="m67.693 15.496h16.95v15.496h-16.95z" fill="#1f1313" />
    <path d="m67.693 0h16.95v15.496h-16.95z" fill="#604c42" />
    <path d="m50.786 294.818h16.908v15.496h-16.908z" fill="#120000" />
    <path d="m50.786 279.322h16.908v15.496h-16.908z" fill="#0f0301" />
    <path d="m50.786 263.826h16.908v15.497h-16.908z" fill="#1c0707" />
    <path d="m50.786 248.154h16.908v15.67h-16.908z" fill="#280809" />
    <path d="m50.786 232.658h16.908v15.496h-16.908z" fill="#37100d" />
    <path d="m50.786 217.142h16.908v15.516h-16.908z" fill="#de714a" />
    <path d="m50.786 201.646h16.908v15.496h-16.908z" fill="#ef8662" />
    <path d="m50.786 186.15h16.908v15.496h-16.908z" fill="#f09869" />
    <path d="m50.786 170.653h16.908v15.497h-16.908z" fill="#de7d5e" />
    <path d="m50.786 155.157h16.908v15.496h-16.908z" fill="#482017" />
    <path d="m50.786 139.66h16.908v15.497h-16.908z" fill="#541f14" />
    <path d="m50.786 124.165h16.908v15.497h-16.908z" fill="#e18d67" />
    <path d="m50.786 108.65h16.908v15.515h-16.908z" fill="#d77352" />
    <path d="m50.786 93.153h16.908v15.496h-16.908v-15.497z" fill="#e37a52" />
    <path d="m50.786 77.5h16.908v15.652h-16.908z" fill="#d77352" />
    <path d="m50.786 61.985h16.908v15.515h-16.908v-15.514z" fill="#a05340" />
    <path d="m50.786 46.49h16.908v15.495h-16.908zm0-15.498h16.908v15.498h-16.908v-15.5z"
      fill="#1f1313" />
    <path d="m50.786 15.496h16.908v15.496h-16.908z" fill="#3c2b2a" />
    <path d="m33.836 279.322h16.95v15.496h-16.95z" fill="#3e0c07" />
    <path d="m33.836 263.826h16.95v15.497h-16.95z" fill="#100000" />
    <path d="m33.836 248.154h16.95v15.67h-16.95z" fill="#280809" />
    <path d="m33.836 232.658h16.95v15.496h-16.95z" fill="#8d3c2b" />
    <path d="m33.836 217.142h16.95v15.516h-16.95z" fill="#be5b47" />
    <path d="m33.836 201.646h16.95v15.496h-16.95z" fill="#cb6045" />
    <path d="m33.836 186.15h16.95v15.496h-16.95z" fill="#db7151" />
    <path d="m33.836 170.653h16.95v15.497h-16.95z" fill="#d37350" />
    <path d="m33.836 155.157h16.95v15.496h-16.95z" fill="#62271b" />
    <path d="m33.836 139.66h16.95v15.497h-16.95z" fill="#974637" />
    <path d="m33.836 124.165h16.95v15.497h-16.95z" fill="#c15f41" />
    <path
      d="m33.836 108.65h16.95v15.515h-16.95zm0-15.497h16.95v15.496h-16.95v-15.497zm0-15.653h16.95v15.652h-16.95z"
      fill="#bc5d44" />
    <path d="m33.836 61.985h16.95v15.515h-16.95v-15.514z" fill="#a05340" />
    <path d="m33.836 46.49h16.95v15.495h-16.95z" fill="#1f1313" />
    <path d="m16.95 248.154h16.886v15.67h-16.886z" fill="#34251b" />
    <path d="m16.95 232.658h16.886v15.496h-16.886z" fill="#160a08" />
    <path d="m16.95 217.142h16.886v15.516h-16.886z" fill="#50201b" />
    <path d="m16.95 201.646h16.886v15.496h-16.886z" fill="#9c4b37" />
    <path d="m16.95 186.15h16.886v15.496h-16.886z" fill="#ab533c" />
    <path d="m16.95 170.653h16.886v15.497h-16.886z" fill="#ba5b42" />
    <path d="m16.95 155.157h16.886v15.496h-16.886z" fill="#ba5b42" />
    <path d="m16.95 139.66h16.886v15.497h-16.886z" fill="#9d5239" />
    <path d="m16.95 124.165h16.886v15.497h-16.886z" fill="#9d5239" />
    <path d="m16.95 108.65h16.886v15.515h-16.886zm0-15.497h16.886v15.496h-16.886v-15.497z"
      fill="#763826" />
    <path d="m16.95 77.5h16.886v15.652h-16.886z" fill="#44180e" />
    <path d="m16.95 61.985h16.886v15.515h-16.886v-15.514z" fill="#1f1313" />
    <path d="m0 201.646h16.95v15.496h-16.95z" fill="#8b574b" />
    <path d="m0 186.15h16.95v15.496h-16.95z" fill="#55261d" />
    <g fill="#221811">
      <path d="m0 170.653h16.95v15.497h-16.95z" />
      <path d="m0 155.157h16.95v15.496h-16.95zm0-15.497h16.95v15.497h-16.95z" />
      <path
        d="m0 124.165h16.95v15.497h-16.95zm0-15.515h16.95v15.515h-16.95zm0-15.497h16.95v15.496h-16.95v-15.497zm0-15.653h16.95v15.652h-16.95z" />
    </g>
  </g>
</svg>
