<svg xmlns="http://www.w3.org/2000/svg" width="237.001" height="341.308"><path d="M220.05 186.15H237v15.496h-16.95V186.15z" fill-rule="evenodd" fill="#ea7a5f"/><path d="M220.05 170.653H237v15.497h-16.95v-15.497z" fill-rule="evenodd" fill="#ea7a5f"/><path d="M220.05 155.157H237v15.496h-16.95v-15.496z" fill-rule="evenodd" fill="#d66652"/><path d="M220.05 139.66H237v15.497h-16.95V139.66z" fill-rule="evenodd" fill="#9c503d"/><path d="M220.05 124.165H237v15.497h-16.95v-15.497z" fill-rule="evenodd" fill="#271e1d"/><path d="M220.05 108.65H237v15.515h-16.95V108.65z" fill-rule="evenodd" fill="#271e1d"/><path d="M203.144 217.142h16.908v15.516h-16.908v-15.516z" fill-rule="evenodd" fill="#271e1d"/><path d="M203.144 201.646h16.908v15.496h-16.908v-15.496z" fill-rule="evenodd" fill="#271e1d"/><path d="M203.144 186.15h16.908v15.496h-16.908V186.15z" fill-rule="evenodd" fill="#693830"/><path d="M203.144 170.653h16.908v15.497h-16.908v-15.497z" fill-rule="evenodd" fill="#5b2318"/><path d="M203.144 155.157h16.908v15.496h-16.908v-15.496z" fill-rule="evenodd" fill="#271e1d"/><path d="M203.144 139.66h16.908v15.497h-16.908V139.66z" fill-rule="evenodd" fill="#271e1d"/><path d="M203.144 124.165h16.908v15.497h-16.908v-15.497z" fill-rule="evenodd" fill="#271e1d"/><path d="M203.144 108.65h16.908v15.515h-16.908V108.65z" fill-rule="evenodd" fill="#271e1d"/><path d="M203.144 93.153h16.908v15.496h-16.908V93.152z" fill-rule="evenodd" fill="#271e1d"/><path d="M203.144 77.5h16.908v15.652h-16.908V77.5z" fill-rule="evenodd" fill="#271e1d"/><path d="M203.144 61.985h16.908V77.5h-16.908V61.986z" fill-rule="evenodd" fill="#271e1d"/><path d="M186.194 263.826h16.95v15.497h-16.95v-15.497z" fill-rule="evenodd" fill="#50241f"/><path d="M186.194 248.154h16.95v15.67h-16.95v-15.67z" fill-rule="evenodd" fill="#1e100f"/><path d="M186.194 232.658h16.95v15.496h-16.95v-15.496z" fill-rule="evenodd" fill="#50241f"/><path d="M186.194 217.142h16.95v15.516h-16.95v-15.516z" fill-rule="evenodd" fill="#81432c"/><path d="M186.194 201.646h16.95v15.496h-16.95v-15.496z" fill-rule="evenodd" fill="#dc825d"/><path d="M186.194 186.15h16.95v15.496h-16.95V186.15z" fill-rule="evenodd" fill="#e4845c"/><path d="M186.194 170.653h16.95v15.497h-16.95v-15.497z" fill-rule="evenodd" fill="#e8895d"/><path d="M186.194 155.157h16.95v15.496h-16.95v-15.496z" fill-rule="evenodd" fill="#e98f63"/><path d="M186.194 139.66h16.95v15.497h-16.95V139.66z" fill-rule="evenodd" fill="#d8704f"/><path d="M186.194 124.165h16.95v15.497h-16.95v-15.497z" fill-rule="evenodd" fill="#b35a42"/><path d="M186.194 108.65h16.95v15.515h-16.95V108.65z" fill-rule="evenodd" fill="#b35a42"/><path d="M186.194 93.153h16.95v15.496h-16.95V93.152z" fill-rule="evenodd" fill="#ce6f4f"/><path d="M186.194 77.5h16.95v15.652h-16.95V77.5z" fill-rule="evenodd" fill="#ce6f4f"/><path d="M186.194 61.985h16.95V77.5h-16.95V61.986z" fill-rule="evenodd" fill="#482520"/><path d="M186.194 46.49h16.95v15.495h-16.95V46.49z" fill-rule="evenodd" fill="#29211b"/><path d="M169.286 279.322h16.908v15.496h-16.908v-15.496z" fill-rule="evenodd" fill="#1f0c0a"/><path d="M169.286 263.826h16.908v15.497h-16.908v-15.497z" fill-rule="evenodd" fill="#1f0c0a"/><path d="M169.286 248.154h16.908v15.67h-16.908v-15.67z" fill-rule="evenodd" fill="#4d1c16"/><path d="M169.286 232.658h16.908v15.496h-16.908v-15.496z" fill-rule="evenodd" fill="#a9543b"/><path d="M169.286 217.142h16.908v15.516h-16.908v-15.516z" fill-rule="evenodd" fill="#db7857"/><path d="M169.286 201.646h16.908v15.496h-16.908v-15.496z" fill-rule="evenodd" fill="#ed8d66"/><path d="M169.286 186.15h16.908v15.496h-16.908V186.15z" fill-rule="evenodd" fill="#f0a370"/><path d="M169.286 170.653h16.908v15.497h-16.908v-15.497z" fill-rule="evenodd" fill="#f0a370"/><path d="M169.286 155.157h16.908v15.496h-16.908v-15.496z" fill-rule="evenodd" fill="#b05135"/><path d="M169.286 139.66h16.908v15.497h-16.908V139.66z" fill-rule="evenodd" fill="#ae533c"/><path d="M169.286 124.165h16.908v15.497h-16.908v-15.497z" fill-rule="evenodd" fill="#e27d50"/><path d="M169.286 108.65h16.908v15.515h-16.908V108.65z" fill-rule="evenodd" fill="#f28d5d"/><path d="M169.286 93.153h16.908v15.496h-16.908V93.152z" fill-rule="evenodd" fill="#e98a5c"/><path d="M169.286 77.5h16.908v15.652h-16.908V77.5z" fill-rule="evenodd" fill="#e98a5c"/><path d="M169.286 61.985h16.908V77.5h-16.908V61.986z" fill-rule="evenodd" fill="#d2694c"/><path d="M169.286 46.49h16.908v15.495h-16.908V46.49z" fill-rule="evenodd" fill="#42241d"/><path d="M169.286 30.992h16.908V46.49h-16.908V30.99z" fill-rule="evenodd" fill="#1f1313"/><path d="M169.286 15.496h16.908v15.496h-16.908V15.496z" fill-rule="evenodd" fill="#595146"/><path d="M152.336 294.818h16.95v15.496h-16.95v-15.496z" fill-rule="evenodd" fill="#190b0a"/><path d="M152.336 279.322h16.95v15.496h-16.95v-15.496z" fill-rule="evenodd" fill="#150b09"/><path d="M152.336 263.826h16.95v15.497h-16.95v-15.497z" fill-rule="evenodd" fill="#2d0c0a"/><path d="M152.336 248.154h16.95v15.67h-16.95v-15.67z" fill-rule="evenodd" fill="#4e1a12"/><path d="M152.336 232.658h16.95v15.496h-16.95v-15.496z" fill-rule="evenodd" fill="#803927"/><path d="M152.336 217.142h16.95v15.516h-16.95v-15.516z" fill-rule="evenodd" fill="#f19666"/><path d="M152.336 201.646h16.95v15.496h-16.95v-15.496z" fill-rule="evenodd" fill="#f19666"/><path d="M152.336 186.15h16.95v15.496h-16.95V186.15z" fill-rule="evenodd" fill="#eea377"/><path d="M152.336 170.653h16.95v15.497h-16.95v-15.497z" fill-rule="evenodd" fill="#db7955"/><path d="M152.336 155.157h16.95v15.496h-16.95v-15.496z" fill-rule="evenodd" fill="#925546"/><path d="M152.336 139.66h16.95v15.497h-16.95V139.66z" fill-rule="evenodd" fill="#b56147"/><path d="M152.336 124.165h16.95v15.497h-16.95v-15.497z" fill-rule="evenodd" fill="#eb9b6f"/><path d="M152.336 108.65h16.95v15.515h-16.95V108.65z" fill-rule="evenodd" fill="#ed865a"/><path d="M152.336 93.153h16.95v15.496h-16.95V93.152z" fill-rule="evenodd" fill="#f79f6d"/><path d="M152.336 77.5h16.95v15.652h-16.95V77.5z" fill-rule="evenodd" fill="#ef9f67"/><path d="M152.336 61.985h16.95V77.5h-16.95V61.986z" fill-rule="evenodd" fill="#dd7753"/><path d="M152.336 46.49h16.95v15.495h-16.95V46.49z" fill-rule="evenodd" fill="#562f21"/><path d="M152.336 30.992h16.95V46.49h-16.95V30.99z" fill-rule="evenodd" fill="#1f1313"/><path d="M152.336 15.496h16.95v15.496h-16.95V15.496z" fill-rule="evenodd" fill="#1f1313"/><path d="M152.336 0h16.95v15.496h-16.95V0z" fill-rule="evenodd" fill="#4c3c39"/><path d="M135.45 310.314h16.886v15.496H135.45v-15.496z" fill-rule="evenodd" fill="#210001"/><path d="M135.45 294.818h16.886v15.496H135.45v-15.496z" fill-rule="evenodd" fill="#190b0a"/><path d="M135.45 279.322h16.886v15.496H135.45v-15.496z" fill-rule="evenodd" fill="#250f0f"/><path d="M135.45 263.826h16.886v15.497H135.45v-15.497z" fill-rule="evenodd" fill="#8a3e29"/><path d="M135.45 248.154h16.886v15.67H135.45v-15.67z" fill-rule="evenodd" fill="#ca643e"/><path d="M135.45 232.658h16.886v15.496H135.45v-15.496z" fill-rule="evenodd" fill="#370a0b"/><path d="M135.45 217.142h16.886v15.516H135.45v-15.516z" fill-rule="evenodd" fill="#d16949"/><path d="M135.45 201.646h16.886v15.496H135.45v-15.496z" fill-rule="evenodd" fill="#f19666"/><path d="M135.45 186.15h16.886v15.496H135.45V186.15z" fill-rule="evenodd" fill="#f8aa7c"/><path d="M135.45 170.653h16.886v15.497H135.45v-15.497z" fill-rule="evenodd" fill="#d77554"/><path d="M135.45 155.157h16.886v15.496H135.45v-15.496z" fill-rule="evenodd" fill="#783e31"/><path d="M135.45 139.66h16.886v15.497H135.45V139.66z" fill-rule="evenodd" fill="#531e1b"/><path d="M135.45 124.165h16.886v15.497H135.45v-15.497z" fill-rule="evenodd" fill="#f1b486"/><path d="M135.45 108.65h16.886v15.515H135.45V108.65z" fill-rule="evenodd" fill="#f0a673"/><path d="M135.45 93.153h16.886v15.496H135.45V93.152z" fill-rule="evenodd" fill="#f79f6d"/><path d="M135.45 77.5h16.886v15.652H135.45V77.5z" fill-rule="evenodd" fill="#efa673"/><path d="M135.45 61.985h16.886V77.5H135.45V61.986z" fill-rule="evenodd" fill="#cf7452"/><path d="M135.45 46.49h16.886v15.495H135.45V46.49z" fill-rule="evenodd" fill="#39221a"/><path d="M135.45 30.992h16.886V46.49H135.45V30.99z" fill-rule="evenodd" fill="#1f1313"/><path d="M135.45 15.496h16.886v15.496H135.45V15.496z" fill-rule="evenodd" fill="#1f1313"/><path d="M135.45 0h16.886v15.496H135.45V0z" fill-rule="evenodd" fill="#3c2b2a"/><path d="M118.5 325.81h16.95v15.498H118.5V325.81z" fill-rule="evenodd" fill="#58180f"/><path d="M118.5 310.314h16.95v15.496H118.5v-15.496z" fill-rule="evenodd" fill="#210001"/><path d="M118.5 294.818h16.95v15.496H118.5v-15.496z" fill-rule="evenodd" fill="#110503"/><path d="M118.5 279.322h16.95v15.496H118.5v-15.496z" fill-rule="evenodd" fill="#36120d"/><path d="M118.5 263.826h16.95v15.497H118.5v-15.497z" fill-rule="evenodd" fill="#9b4a36"/><path d="M118.5 248.154h16.95v15.67H118.5v-15.67z" fill-rule="evenodd" fill="#d45f47"/><path d="M118.5 232.658h16.95v15.496H118.5v-15.496z" fill-rule="evenodd" fill="#8a3422"/><path d="M118.5 217.142h16.95v15.516H118.5v-15.516z" fill-rule="evenodd" fill="#a94f39"/><path d="M118.5 201.646h16.95v15.496H118.5v-15.496z" fill-rule="evenodd" fill="#f27d5b"/><path d="M118.5 186.15h16.95v15.496H118.5V186.15z" fill-rule="evenodd" fill="#ea7b55"/><path d="M118.5 170.653h16.95v15.497H118.5v-15.497z" fill-rule="evenodd" fill="#f29664"/><path d="M118.5 155.157h16.95v15.496H118.5v-15.496z" fill-rule="evenodd" fill="#d06b52"/><path d="M118.5 139.66h16.95v15.497H118.5V139.66z" fill-rule="evenodd" fill="#994934"/><path d="M118.5 124.165h16.95v15.497H118.5v-15.497z" fill-rule="evenodd" fill="#f1b384"/><path d="M118.5 108.65h16.95v15.515H118.5V108.65z" fill-rule="evenodd" fill="#f2b480"/><path d="M118.5 93.153h16.95v15.496H118.5V93.152z" fill-rule="evenodd" fill="#f2aa7d"/><path d="M118.5 77.5h16.95v15.652H118.5V77.5z" fill-rule="evenodd" fill="#f2aa7d"/><path d="M118.5 61.985h16.95V77.5H118.5V61.986z" fill-rule="evenodd" fill="#7d4231"/><path d="M118.5 46.49h16.95v15.495H118.5V46.49z" fill-rule="evenodd" fill="#1f1313"/><path d="M118.5 30.992h16.95V46.49H118.5V30.99z" fill-rule="evenodd" fill="#1f1313"/><path d="M118.5 15.496h16.95v15.496H118.5V15.496z" fill-rule="evenodd" fill="#1f1313"/><path d="M118.5 0h16.95v15.496H118.5V0z" fill-rule="evenodd" fill="#1f1313"/><path d="M101.55 325.81h16.95v15.498h-16.95V325.81z" fill-rule="evenodd" fill="#2c0705"/><path d="M101.55 310.314h16.95v15.496h-16.95v-15.496z" fill-rule="evenodd" fill="#210001"/><path d="M101.55 294.818h16.95v15.496h-16.95v-15.496z" fill-rule="evenodd" fill="#110503"/><path d="M101.55 279.322h16.95v15.496h-16.95v-15.496z" fill-rule="evenodd" fill="#36120d"/><path d="M101.55 263.826h16.95v15.497h-16.95v-15.497z" fill-rule="evenodd" fill="#220906"/><g><path d="M101.55 248.154h16.95v15.67h-16.95v-15.67z" fill-rule="evenodd" fill="#e97057"/></g><g><path d="M101.55 232.658h16.95v15.496h-16.95v-15.496z" fill-rule="evenodd" fill="#b85142"/></g><g><path d="M101.55 217.142h16.95v15.516h-16.95v-15.516z" fill-rule="evenodd" fill="#541e16"/></g><g><path d="M101.55 201.646h16.95v15.496h-16.95v-15.496z" fill-rule="evenodd" fill="#e4765c"/></g><g><path d="M101.55 186.15h16.95v15.496h-16.95V186.15z" fill-rule="evenodd" fill="#f48d68"/></g><g><path d="M101.55 170.653h16.95v15.497h-16.95v-15.497z" fill-rule="evenodd" fill="#f08a66"/></g><g><path d="M101.55 155.157h16.95v15.496h-16.95v-15.496z" fill-rule="evenodd" fill="#ee9d77"/></g><g><path d="M101.55 139.66h16.95v15.497h-16.95V139.66z" fill-rule="evenodd" fill="#ee9d77"/></g><g><path d="M101.55 124.165h16.95v15.497h-16.95v-15.497z" fill-rule="evenodd" fill="#f1b384"/></g><g><path d="M101.55 108.65h16.95v15.515h-16.95V108.65z" fill-rule="evenodd" fill="#f6b77b"/></g><g><path d="M101.55 93.153h16.95v15.496h-16.95V93.152z" fill-rule="evenodd" fill="#e9986f"/></g><g><path d="M101.55 77.5h16.95v15.652h-16.95V77.5z" fill-rule="evenodd" fill="#e9986f"/></g><g><path d="M101.55 61.985h16.95V77.5h-16.95V61.986z" fill-rule="evenodd" fill="#7d4231"/></g><g><path d="M101.55 46.49h16.95v15.495h-16.95V46.49z" fill-rule="evenodd" fill="#1f1313"/></g><g><path d="M101.55 30.992h16.95V46.49h-16.95V30.99z" fill-rule="evenodd" fill="#1f1313"/></g><g><path d="M101.55 15.496h16.95v15.496h-16.95V15.496z" fill-rule="evenodd" fill="#1f1313"/></g><g><path d="M101.55 0h16.95v15.496h-16.95V0z" fill-rule="evenodd" fill="#1f1313"/></g><g><path d="M84.643 325.81h16.908v15.498H84.644V325.81z" fill-rule="evenodd" fill="#58180f"/></g><g><path d="M84.643 310.314h16.908v15.496H84.644v-15.496z" fill-rule="evenodd" fill="#210001"/></g><g><path d="M84.643 294.818h16.908v15.496H84.644v-15.496z" fill-rule="evenodd" fill="#110503"/></g><g><path d="M84.643 279.322h16.908v15.496H84.644v-15.496z" fill-rule="evenodd" fill="#290909"/></g><g><path d="M84.643 263.826h16.908v15.497H84.644v-15.497z" fill-rule="evenodd" fill="#290800"/></g><g><path d="M84.643 248.154h16.908v15.67H84.644v-15.67z" fill-rule="evenodd" fill="#dd624e"/></g><g><path d="M84.643 232.658h16.908v15.496H84.644v-15.496z" fill-rule="evenodd" fill="#632119"/></g><g><path d="M84.643 217.142h16.908v15.516H84.644v-15.516z" fill-rule="evenodd" fill="#541e16"/></g><g><path d="M84.643 201.646h16.908v15.496H84.644v-15.496z" fill-rule="evenodd" fill="#c65944"/></g><g><path d="M84.643 186.15h16.908v15.496H84.644V186.15z" fill-rule="evenodd" fill="#e46d55"/></g><g><path d="M84.643 170.653h16.908v15.497H84.644v-15.497z" fill-rule="evenodd" fill="#d45b48"/></g><g><path d="M84.643 155.157h16.908v15.496H84.644v-15.496z" fill-rule="evenodd" fill="#a84c32"/></g><g><path d="M84.643 139.66h16.908v15.497H84.644V139.66z" fill-rule="evenodd" fill="#d07257"/></g><g><path d="M84.643 124.165h16.908v15.497H84.644v-15.497z" fill-rule="evenodd" fill="#f5b588"/></g><g><path d="M84.643 108.65h16.908v15.515H84.644V108.65z" fill-rule="evenodd" fill="#f6b17f"/></g><g><path d="M84.643 93.153h16.908v15.496H84.644V93.152z" fill-rule="evenodd" fill="#e9986f"/></g><g><path d="M84.643 77.5h16.908v15.652H84.644V77.5z" fill-rule="evenodd" fill="#e9986f"/></g><g><path d="M84.643 61.985h16.908V77.5H84.644V61.986z" fill-rule="evenodd" fill="#5e261c"/></g><g><path d="M84.643 46.49h16.908v15.495H84.644V46.49z" fill-rule="evenodd" fill="#1f1313"/></g><g><path d="M84.643 30.992h16.908V46.49H84.644V30.99z" fill-rule="evenodd" fill="#1f1313"/></g><g><path d="M84.643 15.496h16.908v15.496H84.644V15.496z" fill-rule="evenodd" fill="#1f1313"/></g><g><path d="M84.643 0h16.908v15.496H84.644V0z" fill-rule="evenodd" fill="#3c2b2a"/></g><g><path d="M67.693 310.314h16.95v15.496h-16.95v-15.496z" fill-rule="evenodd" fill="#210001"/></g><g><path d="M67.693 294.818h16.95v15.496h-16.95v-15.496z" fill-rule="evenodd" fill="#120000"/></g><g><path d="M67.693 279.322h16.95v15.496h-16.95v-15.496z" fill-rule="evenodd" fill="#0f0301"/></g><g><path d="M67.693 263.826h16.95v15.497h-16.95v-15.497z" fill-rule="evenodd" fill="#3d0f06"/></g><g><path d="M67.693 248.154h16.95v15.67h-16.95v-15.67z" fill-rule="evenodd" fill="#7d2f20"/></g><g><path d="M67.693 232.658h16.95v15.496h-16.95v-15.496z" fill-rule="evenodd" fill="#37100d"/></g><g><path d="M67.693 217.142h16.95v15.516h-16.95v-15.516z" fill-rule="evenodd" fill="#9c4735"/></g><g><path d="M67.693 201.646h16.95v15.496h-16.95v-15.496z" fill-rule="evenodd" fill="#c95b3d"/></g><g><path d="M67.693 186.15h16.95v15.496h-16.95V186.15z" fill-rule="evenodd" fill="#e67656"/></g><g><path d="M67.693 170.653h16.95v15.497h-16.95v-15.497z" fill-rule="evenodd" fill="#de7d5e"/></g><g><path d="M67.693 155.157h16.95v15.496h-16.95v-15.496z" fill-rule="evenodd" fill="#9e4b39"/></g><g><path d="M67.693 139.66h16.95v15.497h-16.95V139.66z" fill-rule="evenodd" fill="#58231b"/></g><g><path d="M67.693 124.165h16.95v15.497h-16.95v-15.497z" fill-rule="evenodd" fill="#f5b588"/></g><g><path d="M67.693 108.65h16.95v15.515h-16.95V108.65z" fill-rule="evenodd" fill="#f0a477"/></g><g><path d="M67.693 93.153h16.95v15.496h-16.95V93.152z" fill-rule="evenodd" fill="#df9262"/></g><g><path d="M67.693 77.5h16.95v15.652h-16.95V77.5z" fill-rule="evenodd" fill="#e9986f"/></g><g><path d="M67.693 61.985h16.95V77.5h-16.95V61.986z" fill-rule="evenodd" fill="#5e261c"/></g><g><path d="M67.693 46.49h16.95v15.495h-16.95V46.49z" fill-rule="evenodd" fill="#1f1313"/></g><g><path d="M67.693 30.992h16.95V46.49h-16.95V30.99z" fill-rule="evenodd" fill="#1f1313"/></g><g><path d="M67.693 15.496h16.95v15.496h-16.95V15.496z" fill-rule="evenodd" fill="#1f1313"/></g><g><path d="M67.693 0h16.95v15.496h-16.95V0z" fill-rule="evenodd" fill="#604c42"/></g><g><path d="M50.786 294.818h16.908v15.496H50.786v-15.496z" fill-rule="evenodd" fill="#120000"/></g><g><path d="M50.786 279.322h16.908v15.496H50.786v-15.496z" fill-rule="evenodd" fill="#0f0301"/></g><g><path d="M50.786 263.826h16.908v15.497H50.786v-15.497z" fill-rule="evenodd" fill="#1c0707"/></g><g><path d="M50.786 248.154h16.908v15.67H50.786v-15.67z" fill-rule="evenodd" fill="#280809"/></g><g><path d="M50.786 232.658h16.908v15.496H50.786v-15.496z" fill-rule="evenodd" fill="#37100d"/></g><g><path d="M50.786 217.142h16.908v15.516H50.786v-15.516z" fill-rule="evenodd" fill="#de714a"/></g><g><path d="M50.786 201.646h16.908v15.496H50.786v-15.496z" fill-rule="evenodd" fill="#ef8662"/></g><g><path d="M50.786 186.15h16.908v15.496H50.786V186.15z" fill-rule="evenodd" fill="#f09869"/></g><g><path d="M50.786 170.653h16.908v15.497H50.786v-15.497z" fill-rule="evenodd" fill="#de7d5e"/></g><g><path d="M50.786 155.157h16.908v15.496H50.786v-15.496z" fill-rule="evenodd" fill="#482017"/></g><g><path d="M50.786 139.66h16.908v15.497H50.786V139.66z" fill-rule="evenodd" fill="#541f14"/></g><g><path d="M50.786 124.165h16.908v15.497H50.786v-15.497z" fill-rule="evenodd" fill="#e18d67"/></g><g><path d="M50.786 108.65h16.908v15.515H50.786V108.65z" fill-rule="evenodd" fill="#d77352"/></g><g><path d="M50.786 93.153h16.908v15.496H50.786V93.152z" fill-rule="evenodd" fill="#e37a52"/></g><g><path d="M50.786 77.5h16.908v15.652H50.786V77.5z" fill-rule="evenodd" fill="#d77352"/></g><g><path d="M50.786 61.985h16.908V77.5H50.786V61.986z" fill-rule="evenodd" fill="#a05340"/></g><g><path d="M50.786 46.49h16.908v15.495H50.786V46.49z" fill-rule="evenodd" fill="#1f1313"/></g><g><path d="M50.786 30.992h16.908V46.49H50.786V30.99z" fill-rule="evenodd" fill="#1f1313"/></g><g><path d="M50.786 15.496h16.908v15.496H50.786V15.496z" fill-rule="evenodd" fill="#3c2b2a"/></g><g><path d="M33.836 279.322h16.95v15.496h-16.95v-15.496z" fill-rule="evenodd" fill="#3e0c07"/></g><g><path d="M33.836 263.826h16.95v15.497h-16.95v-15.497z" fill-rule="evenodd" fill="#100000"/></g><g><path d="M33.836 248.154h16.95v15.67h-16.95v-15.67z" fill-rule="evenodd" fill="#280809"/></g><g><path d="M33.836 232.658h16.95v15.496h-16.95v-15.496z" fill-rule="evenodd" fill="#8d3c2b"/></g><g><path d="M33.836 217.142h16.95v15.516h-16.95v-15.516z" fill-rule="evenodd" fill="#be5b47"/></g><g><path d="M33.836 201.646h16.95v15.496h-16.95v-15.496z" fill-rule="evenodd" fill="#cb6045"/></g><g><path d="M33.836 186.15h16.95v15.496h-16.95V186.15z" fill-rule="evenodd" fill="#db7151"/></g><g><path d="M33.836 170.653h16.95v15.497h-16.95v-15.497z" fill-rule="evenodd" fill="#d37350"/></g><g><path d="M33.836 155.157h16.95v15.496h-16.95v-15.496z" fill-rule="evenodd" fill="#62271b"/></g><g><path d="M33.836 139.66h16.95v15.497h-16.95V139.66z" fill-rule="evenodd" fill="#974637"/></g><g><path d="M33.836 124.165h16.95v15.497h-16.95v-15.497z" fill-rule="evenodd" fill="#c15f41"/></g><g><path d="M33.836 108.65h16.95v15.515h-16.95V108.65z" fill-rule="evenodd" fill="#bc5d44"/></g><g><path d="M33.836 93.153h16.95v15.496h-16.95V93.152z" fill-rule="evenodd" fill="#bc5d44"/></g><g><path d="M33.836 77.5h16.95v15.652h-16.95V77.5z" fill-rule="evenodd" fill="#bc5d44"/></g><g><path d="M33.836 61.985h16.95V77.5h-16.95V61.986z" fill-rule="evenodd" fill="#a05340"/></g><g><path d="M33.836 46.49h16.95v15.495h-16.95V46.49z" fill-rule="evenodd" fill="#1f1313"/></g><g><path d="M16.95 248.154h16.886v15.67H16.95v-15.67z" fill-rule="evenodd" fill="#34251b"/></g><g><path d="M16.95 232.658h16.886v15.496H16.95v-15.496z" fill-rule="evenodd" fill="#160a08"/></g><g><path d="M16.95 217.142h16.886v15.516H16.95v-15.516z" fill-rule="evenodd" fill="#50201b"/></g><g><path d="M16.95 201.646h16.886v15.496H16.95v-15.496z" fill-rule="evenodd" fill="#9c4b37"/></g><g><path d="M16.95 186.15h16.886v15.496H16.95V186.15z" fill-rule="evenodd" fill="#ab533c"/></g><g><path d="M16.95 170.653h16.886v15.497H16.95v-15.497z" fill-rule="evenodd" fill="#ba5b42"/></g><g><path d="M16.95 155.157h16.886v15.496H16.95v-15.496z" fill-rule="evenodd" fill="#ba5b42"/></g><g><path d="M16.95 139.66h16.886v15.497H16.95V139.66z" fill-rule="evenodd" fill="#9d5239"/></g><g><path d="M16.95 124.165h16.886v15.497H16.95v-15.497z" fill-rule="evenodd" fill="#9d5239"/></g><g><path d="M16.95 108.65h16.886v15.515H16.95V108.65z" fill-rule="evenodd" fill="#763826"/></g><g><path d="M16.95 93.153h16.886v15.496H16.95V93.152z" fill-rule="evenodd" fill="#763826"/></g><g><path d="M16.95 77.5h16.886v15.652H16.95V77.5z" fill-rule="evenodd" fill="#44180e"/></g><g><path d="M16.95 61.985h16.886V77.5H16.95V61.986z" fill-rule="evenodd" fill="#1f1313"/></g><g><path d="M0 201.646h16.95v15.496H0v-15.496z" fill-rule="evenodd" fill="#8b574b"/></g><g><path d="M0 186.15h16.95v15.496H0V186.15z" fill-rule="evenodd" fill="#55261d"/></g><g><path d="M0 170.653h16.95v15.497H0v-15.497z" fill-rule="evenodd" fill="#221811"/></g><g><path d="M0 155.157h16.95v15.496H0v-15.496z" fill-rule="evenodd" fill="#221811"/></g><g><path d="M0 139.66h16.95v15.497H0V139.66z" fill-rule="evenodd" fill="#221811"/></g><g><path d="M0 124.165h16.95v15.497H0v-15.497z" fill-rule="evenodd" fill="#221811"/></g><g><path d="M0 108.65h16.95v15.515H0V108.65z" fill-rule="evenodd" fill="#221811"/></g><g><path d="M0 93.153h16.95v15.496H0V93.152z" fill-rule="evenodd" fill="#221811"/></g><g><path d="M0 77.5h16.95v15.652H0V77.5z" fill-rule="evenodd" fill="#221811"/></g></svg>